<svg width="91" height="98" viewBox="0 0 91 98" fill="none" xmlns="http://www.w3.org/2000/svg">
<path d="M57.7278 81.1428C57.7278 88.2444 53.902 94 47.3528 94H22.8975C16.3482 94 12.5225 88.2444 12.5225 81.1428" stroke="black" stroke-width="6.29845" stroke-miterlimit="10" stroke-linecap="round"/>
<path d="M60.3214 65.0714C63.5951 65.0714 66.25 68.6694 66.25 73.1071C66.25 77.5448 63.5951 81.1428 60.3214 81.1428H9.92857C6.65489 81.1428 4 77.5448 4 73.1071C4 68.6694 6.65489 65.0714 9.92857 65.0714" stroke="black" stroke-width="6.29845" stroke-miterlimit="10" stroke-linecap="round"/>
<path d="M61.8036 65.0714H31.2918C30.8992 65.0716 30.5228 65.2407 30.245 65.5415L25.2743 70.9315C25.2055 71.0062 25.1238 71.0655 25.0338 71.1059C24.9438 71.1464 24.8474 71.1672 24.75 71.1672C24.6526 71.1672 24.5562 71.1464 24.4662 71.1059C24.3762 71.0655 24.2945 71.0062 24.2257 70.9315L19.255 65.5415C18.9772 65.2407 18.6008 65.0716 18.2082 65.0714H8.44643C7.26716 65.0714 6.1362 64.5635 5.30233 63.6593C4.46846 62.7551 4 61.5287 4 60.25C4 58.9713 4.46846 57.7449 5.30233 56.8408C6.1362 55.9366 7.26716 55.4286 8.44643 55.4286H61.8036C62.9828 55.4286 64.1138 55.9366 64.9477 56.8408C65.7815 57.7449 66.25 58.9713 66.25 60.25C66.25 61.5287 65.7815 62.7551 64.9477 63.6593C64.1138 64.5635 62.9828 65.0714 61.8036 65.0714Z" stroke="black" stroke-width="6.29845" stroke-miterlimit="10" stroke-linecap="round"/>
<path d="M9.92822 53.0178V52.9736C9.92822 41.9245 18.2653 36.1428 28.455 36.1428H41.7943C51.984 36.1428 60.3211 41.9687 60.3211 53.0178V52.9736" stroke="black" stroke-width="6.29845" stroke-miterlimit="10" stroke-linecap="round"/>
<path d="M42.7207 20.0714L44.0991 32.9225" stroke="black" stroke-width="6.29845" stroke-miterlimit="10" stroke-linecap="round"/>
<path d="M45.5005 94H71.3102C72.8058 94 74.2462 93.3869 75.3426 92.2838C76.439 91.1806 77.1103 89.6688 77.222 88.0516L83.8509 20.0714" stroke="black" stroke-width="6.29845" stroke-miterlimit="10" stroke-linecap="round"/>
<path d="M66.25 20.0714L69.2143 7.21429L77.9219 4" stroke="black" stroke-width="6.29845" stroke-linecap="round" stroke-linejoin="round"/>
<path d="M39.5713 20.0714H86.9999" stroke="black" stroke-width="6.29845" stroke-miterlimit="10" stroke-linecap="round"/>
</svg>
